<?xml version="1.0" encoding="UTF-8" standalone="no"?>
<svg
   xmlns:dc="http://purl.org/dc/elements/1.1/"
   xmlns:cc="http://creativecommons.org/ns#"
   xmlns:rdf="http://www.w3.org/1999/02/22-rdf-syntax-ns#"
   xmlns:svg="http://www.w3.org/2000/svg"
   xmlns="http://www.w3.org/2000/svg"
   xmlns:sodipodi="http://sodipodi.sourceforge.net/DTD/sodipodi-0.dtd"
   xmlns:inkscape="http://www.inkscape.org/namespaces/inkscape"
   width="20mm"
   height="20mm"
   viewBox="0 0 20 20"
   version="1.1"
   id="svg1105"
   inkscape:version="1.0.1 (1.0.1+r73)"
   sodipodi:docname="check-outline.svg">
  <defs
     id="defs1099" />
  <sodipodi:namedview
     id="base"
     pagecolor="#ffffff"
     bordercolor="#666666"
     borderopacity="1.0"
     inkscape:pageopacity="0.0"
     inkscape:pageshadow="2"
     inkscape:zoom="4.8717863"
     inkscape:cx="84.331763"
     inkscape:cy="7.5201444"
     inkscape:document-units="mm"
     inkscape:current-layer="layer1"
     inkscape:document-rotation="0"
     showgrid="false"
     fit-margin-top="0"
     fit-margin-left="0"
     fit-margin-right="0"
     fit-margin-bottom="0"
     inkscape:window-width="1920"
     inkscape:window-height="998"
     inkscape:window-x="0"
     inkscape:window-y="0"
     inkscape:window-maximized="1" />
  <metadata
     id="metadata1102">
    <rdf:RDF>
      <cc:Work
         rdf:about="">
        <dc:format>image/svg+xml</dc:format>
        <dc:type
           rdf:resource="http://purl.org/dc/dcmitype/StillImage" />
        <dc:title></dc:title>
      </cc:Work>
    </rdf:RDF>
  </metadata>
  <g
     inkscape:label="Layer 1"
     inkscape:groupmode="layer"
     id="layer1"
     transform="translate(284.42709,-19.465774)">
    <g
       id="g902"
       transform="matrix(0.66666667,0,0,0.66666667,-256.47396,-5.0146948)">
      <path
         inkscape:connector-curvature="0"
         d="m -26.496214,59.893102 a 3.0941076,3.0937009 0 0 1 -4.789167,0.234978 l -5.575192,-6.175403 a 2.3890831,2.3887691 0 0 1 0.176007,-3.376674 2.3980834,2.3977682 0 0 1 3.383118,0.175984 l 3.944135,4.369577 a 0.29101012,0.29097187 0 0 0 0.450015,-0.023 l 8.108282,-10.974937 a 2.3980834,2.3977682 0 0 1 3.350116,-0.505954 2.3880831,2.3877692 0 0 1 0.505019,3.34268 z"
         id="path2-3"
         style="stroke-width:0.999974" />
      <path
         style="color:#000000;font-style:normal;font-variant:normal;font-weight:normal;font-stretch:normal;font-size:medium;line-height:normal;font-family:sans-serif;font-variant-ligatures:normal;font-variant-position:normal;font-variant-caps:normal;font-variant-numeric:normal;font-variant-alternates:normal;font-variant-east-asian:normal;font-feature-settings:normal;font-variation-settings:normal;text-indent:0;text-align:start;text-decoration:none;text-decoration-line:none;text-decoration-style:solid;text-decoration-color:#000000;letter-spacing:normal;word-spacing:normal;text-transform:none;writing-mode:lr-tb;direction:ltr;text-orientation:mixed;dominant-baseline:auto;baseline-shift:baseline;text-anchor:start;white-space:normal;shape-padding:0;shape-margin:0;inline-size:0;clip-rule:nonzero;display:inline;overflow:visible;visibility:visible;opacity:1;isolation:auto;mix-blend-mode:normal;color-interpolation:sRGB;color-interpolation-filters:linearRGB;solid-color:#000000;solid-opacity:1;vector-effect:none;fill:#000000;fill-opacity:1;fill-rule:nonzero;stroke:none;stroke-width:2.22222;stroke-linecap:butt;stroke-linejoin:miter;stroke-miterlimit:4;stroke-dasharray:none;stroke-dashoffset:0;stroke-opacity:1;color-rendering:auto;image-rendering:auto;shape-rendering:auto;text-rendering:auto;enable-background:accumulate;stop-color:#000000;stop-opacity:1"
         d="m -32.818359,36.720703 c -5.018767,0 -9.111329,4.092562 -9.111329,9.111328 v 11.777344 c 0,5.018766 4.092562,9.111328 9.111329,9.111328 h 11.777343 c 5.018767,0 9.111328,-4.092562 9.111328,-9.111328 V 45.832031 c 0,-5.018766 -4.092561,-9.111328 -9.111328,-9.111328 z m 0,2.222656 h 11.777343 c 3.81779,0 6.888672,3.070883 6.888672,6.888672 v 11.777344 c 0,3.81779 -3.070882,6.888672 -6.888672,6.888672 h -11.777343 c -3.81779,0 -6.888672,-3.070882 -6.888672,-6.888672 V 45.832031 c 0,-3.817789 3.070882,-6.888672 6.888672,-6.888672 z"
         id="path898" />
    </g>
  </g>
</svg>
