<?xml version="1.0" encoding="UTF-8" standalone="no"?>
<svg
   xmlns:dc="http://purl.org/dc/elements/1.1/"
   xmlns:cc="http://creativecommons.org/ns#"
   xmlns:rdf="http://www.w3.org/1999/02/22-rdf-syntax-ns#"
   xmlns:svg="http://www.w3.org/2000/svg"
   xmlns="http://www.w3.org/2000/svg"
   xmlns:sodipodi="http://sodipodi.sourceforge.net/DTD/sodipodi-0.dtd"
   xmlns:inkscape="http://www.inkscape.org/namespaces/inkscape"
   width="150"
   height="150"
   version="1.1"
   id="svg4"
   sodipodi:docname="logo-ungrouped.svg"
   inkscape:version="1.0.1 (1.0.1+r73)">
  <metadata
     id="metadata10">
    <rdf:RDF>
      <cc:Work
         rdf:about="">
        <dc:format>image/svg+xml</dc:format>
        <dc:type
           rdf:resource="http://purl.org/dc/dcmitype/StillImage" />
        <dc:title></dc:title>
      </cc:Work>
    </rdf:RDF>
  </metadata>
  <defs
     id="defs8">
    <inkscape:path-effect
       effect="fillet_chamfer"
       id="path-effect873"
       is_visible="true"
       lpeversion="1"
       satellites_param="F,0,0,1,0,8,0,1 @ F,0,0,1,0,8,0,1 @ F,0,0,1,0,8,0,1 @ F,0,0,1,0,8,0,1"
       unit="px"
       method="auto"
       mode="F"
       radius="8"
       chamfer_steps="1"
       flexible="false"
       use_knot_distance="true"
       apply_no_radius="true"
       apply_with_radius="true"
       only_selected="false"
       hide_knots="false" />
    <inkscape:path-effect
       effect="fillet_chamfer"
       id="path-effect1814"
       is_visible="true"
       lpeversion="1"
       satellites_param="F,0,0,1,0,8,0,1 @ F,0,0,1,0,8,0,1 @ F,0,0,1,0,8,0,1 @ F,0,0,1,0,8,0,1"
       unit="px"
       method="auto"
       mode="F"
       radius="8"
       chamfer_steps="1"
       flexible="false"
       use_knot_distance="true"
       apply_no_radius="true"
       apply_with_radius="true"
       only_selected="false"
       hide_knots="false" />
    <inkscape:path-effect
       effect="fillet_chamfer"
       id="path-effect893"
       is_visible="true"
       lpeversion="1"
       satellites_param="F,0,0,1,0,8,0,1 @ F,0,0,1,0,8,0,1 @ F,0,0,1,0,8,0,1 @ F,0,0,1,0,8,0,1"
       unit="px"
       method="auto"
       mode="F"
       radius="8"
       chamfer_steps="1"
       flexible="false"
       use_knot_distance="true"
       apply_no_radius="true"
       apply_with_radius="true"
       only_selected="false"
       hide_knots="false" />
    <inkscape:path-effect
       effect="fillet_chamfer"
       id="path-effect874"
       is_visible="true"
       lpeversion="1"
       satellites_param="F,0,0,1,0,8,0,1 @ F,0,0,1,0,8,0,1 @ F,0,0,1,0,8,0,1 @ F,0,0,1,0,8,0,1"
       unit="px"
       method="auto"
       mode="F"
       radius="8"
       chamfer_steps="1"
       flexible="false"
       use_knot_distance="true"
       apply_no_radius="true"
       apply_with_radius="true"
       only_selected="false"
       hide_knots="false" />
    <inkscape:path-effect
       effect="fillet_chamfer"
       id="path-effect855"
       is_visible="true"
       lpeversion="1"
       satellites_param="F,0,0,1,0,8,0,1 @ F,0,0,1,0,8,0,1 @ F,0,0,1,0,8,0,1 @ F,0,0,1,0,8,0,1"
       unit="px"
       method="auto"
       mode="F"
       radius="8"
       chamfer_steps="1"
       flexible="false"
       use_knot_distance="true"
       apply_no_radius="true"
       apply_with_radius="true"
       only_selected="false"
       hide_knots="false" />
    <inkscape:path-effect
       effect="fillet_chamfer"
       id="path-effect836"
       is_visible="true"
       lpeversion="1"
       satellites_param="F,0,0,1,0,8,0,1 @ F,0,0,1,0,8,0,1 @ F,0,0,1,0,8,0,1 @ F,0,0,1,0,8,0,1"
       unit="px"
       method="auto"
       mode="F"
       radius="8"
       chamfer_steps="1"
       flexible="false"
       use_knot_distance="true"
       apply_no_radius="true"
       apply_with_radius="true"
       only_selected="false"
       hide_knots="false" />
    <inkscape:path-effect
       effect="fillet_chamfer"
       id="path-effect832"
       is_visible="true"
       lpeversion="1"
       satellites_param="IC,0,0,1,0,5,0,1 @ IC,0,0,1,0,5,0,1 @ IC,0,0,1,0,5,0,1 @ IC,0,0,1,0,5,0,1 @ IC,0,0,1,0,5,0,1 | IC,0,0,1,0,5,0,1 @ IC,0,0,1,0,5,0,1 @ IC,0,0,1,0,5,0,1 @ IC,0,0,1,0,5,0,1"
       unit="px"
       method="auto"
       mode="IC"
       radius="5"
       chamfer_steps="1"
       flexible="false"
       use_knot_distance="true"
       apply_no_radius="true"
       apply_with_radius="true"
       only_selected="false"
       hide_knots="false" />
    <inkscape:path-effect
       effect="bend_path"
       id="path-effect939"
       is_visible="true"
       bendpath="m -58.416016,32.416016 h 27"
       prop_scale="1"
       scale_y_rel="false"
       vertical="false"
       lpeversion="0"
       hide_knot="false" />
  </defs>
  <sodipodi:namedview
     pagecolor="#ffffff"
     bordercolor="#666666"
     borderopacity="1"
     objecttolerance="10"
     gridtolerance="10"
     guidetolerance="10"
     inkscape:pageopacity="0"
     inkscape:pageshadow="2"
     inkscape:window-width="1920"
     inkscape:window-height="998"
     id="namedview6"
     showgrid="false"
     inkscape:zoom="2.9142223"
     inkscape:cx="63.208822"
     inkscape:cy="46.249742"
     inkscape:window-x="0"
     inkscape:window-y="0"
     inkscape:window-maximized="1"
     inkscape:current-layer="svg4"
     inkscape:document-rotation="0"
     fit-margin-top="15"
     fit-margin-left="15"
     fit-margin-right="15"
     fit-margin-bottom="15" />
  <path
     style="color:#000000;font-style:normal;font-variant:normal;font-weight:normal;font-stretch:normal;font-size:medium;line-height:normal;font-family:sans-serif;font-variant-ligatures:normal;font-variant-position:normal;font-variant-caps:normal;font-variant-numeric:normal;font-variant-alternates:normal;font-variant-east-asian:normal;font-feature-settings:normal;font-variation-settings:normal;text-indent:0;text-align:start;text-decoration:none;text-decoration-line:none;text-decoration-style:solid;text-decoration-color:#000000;letter-spacing:normal;word-spacing:normal;text-transform:none;writing-mode:lr-tb;direction:ltr;text-orientation:mixed;dominant-baseline:auto;baseline-shift:baseline;text-anchor:start;white-space:normal;shape-padding:0;shape-margin:0;inline-size:0;clip-rule:nonzero;display:inline;overflow:visible;visibility:visible;isolation:auto;mix-blend-mode:normal;color-interpolation:sRGB;color-interpolation-filters:linearRGB;solid-color:#000000;solid-opacity:1;vector-effect:none;fill:#ffffff;fill-opacity:1;fill-rule:nonzero;stroke:none;stroke-width:11.1111;stroke-linecap:butt;stroke-linejoin:miter;stroke-miterlimit:4;stroke-dasharray:none;stroke-dashoffset:0;stroke-opacity:1;color-rendering:auto;image-rendering:auto;shape-rendering:auto;text-rendering:auto;enable-background:accumulate;stop-color:#000000"
     d="M 45.556645,0 C 20.46281,0 0,20.462801 0,45.556652 V 104.44335 C 0,129.5372 20.46281,150 45.556645,150 H 104.44336 C 129.53719,150 150,129.5372 150,104.44335 V 45.556652 C 150,20.462801 129.53719,0 104.44336,0 Z"
     id="path898-6-3-3" />
  <rect
     style="fill:#737373;fill-opacity:1;stroke:none;stroke-width:0.829959;stroke-miterlimit:4;stroke-dasharray:none;stroke-opacity:1"
     id="rect942-0"
     width="17"
     height="3"
     x="44"
     y="74" />
  <rect
     style="fill:#737373;fill-opacity:1;stroke:none;stroke-width:0.829959;stroke-miterlimit:4;stroke-dasharray:none;stroke-opacity:1"
     id="rect942-9-3"
     width="17"
     height="3"
     x="90"
     y="74" />
  <rect
     style="fill:#737373;fill-opacity:1;stroke:none;stroke-width:0.82996;stroke-miterlimit:4;stroke-dasharray:none;stroke-opacity:1"
     id="rect942-9-3-1-8"
     width="3"
     height="17"
     x="29"
     y="90" />
  <path
     style="color:#000000;font-style:normal;font-variant:normal;font-weight:normal;font-stretch:normal;font-size:medium;line-height:normal;font-family:sans-serif;font-variant-ligatures:normal;font-variant-position:normal;font-variant-caps:normal;font-variant-numeric:normal;font-variant-alternates:normal;font-variant-east-asian:normal;font-feature-settings:normal;font-variation-settings:normal;text-indent:0;text-align:start;text-decoration:none;text-decoration-line:none;text-decoration-style:solid;text-decoration-color:#000000;letter-spacing:normal;word-spacing:normal;text-transform:none;writing-mode:lr-tb;direction:ltr;text-orientation:mixed;dominant-baseline:auto;baseline-shift:baseline;text-anchor:start;white-space:normal;shape-padding:0;shape-margin:0;inline-size:0;clip-rule:nonzero;display:inline;overflow:visible;visibility:visible;isolation:auto;mix-blend-mode:normal;color-interpolation:sRGB;color-interpolation-filters:linearRGB;solid-color:#000000;solid-opacity:1;vector-effect:none;fill:#737373;fill-opacity:1;fill-rule:nonzero;stroke:none;stroke-width:2.22222;stroke-linecap:butt;stroke-linejoin:miter;stroke-miterlimit:4;stroke-dasharray:none;stroke-dashoffset:0;stroke-opacity:1;color-rendering:auto;image-rendering:auto;shape-rendering:auto;text-rendering:auto;enable-background:accumulate;stop-color:#000000;stop-opacity:1;opacity:1"
     d="M 69.111328 15 C 64.092562 15 60 19.092562 60 24.111328 L 60 35.888672 C 60 40.907438 64.092562 45 69.111328 45 L 80.888672 45 C 85.907438 45 90 40.907438 90 35.888672 L 90 24.111328 C 90 19.092562 85.907438 15 80.888672 15 L 69.111328 15 z M 69.111328 17.222656 L 80.888672 17.222656 C 84.706461 17.222656 87.777344 20.293539 87.777344 24.111328 L 87.777344 35.888672 C 87.777344 39.706461 84.706461 42.777344 80.888672 42.777344 L 69.111328 42.777344 C 65.293539 42.777344 62.222656 39.706461 62.222656 35.888672 L 62.222656 24.111328 C 62.222656 20.293539 65.293539 17.222656 69.111328 17.222656 z "
     id="path1120" />
  <path
     style="color:#000000;font-style:normal;font-variant:normal;font-weight:normal;font-stretch:normal;font-size:medium;line-height:normal;font-family:sans-serif;font-variant-ligatures:normal;font-variant-position:normal;font-variant-caps:normal;font-variant-numeric:normal;font-variant-alternates:normal;font-variant-east-asian:normal;font-feature-settings:normal;font-variation-settings:normal;text-indent:0;text-align:start;text-decoration:none;text-decoration-line:none;text-decoration-style:solid;text-decoration-color:#000000;letter-spacing:normal;word-spacing:normal;text-transform:none;writing-mode:lr-tb;direction:ltr;text-orientation:mixed;dominant-baseline:auto;baseline-shift:baseline;text-anchor:start;white-space:normal;shape-padding:0;shape-margin:0;inline-size:0;clip-rule:nonzero;display:inline;overflow:visible;visibility:visible;isolation:auto;mix-blend-mode:normal;color-interpolation:sRGB;color-interpolation-filters:linearRGB;solid-color:#000000;solid-opacity:1;vector-effect:none;fill:#737373;fill-opacity:1;fill-rule:nonzero;stroke:none;stroke-width:2.22222;stroke-linecap:butt;stroke-linejoin:miter;stroke-miterlimit:4;stroke-dasharray:none;stroke-dashoffset:0;stroke-opacity:1;color-rendering:auto;image-rendering:auto;shape-rendering:auto;text-rendering:auto;enable-background:accumulate;stop-color:#000000;stop-opacity:1;opacity:1"
     d="M 69.111328 105 C 64.092562 105 60 109.09256 60 114.11133 L 60 125.88867 C 60 130.90744 64.092562 135 69.111328 135 L 80.888672 135 C 85.907438 135 90 130.90744 90 125.88867 L 90 114.11133 C 90 109.09256 85.907438 105 80.888672 105 L 69.111328 105 z M 69.111328 107.22266 L 80.888672 107.22266 C 84.706461 107.22266 87.777344 110.29354 87.777344 114.11133 L 87.777344 125.88867 C 87.777344 129.70646 84.706461 132.77734 80.888672 132.77734 L 69.111328 132.77734 C 65.293539 132.77734 62.222656 129.70646 62.222656 125.88867 L 62.222656 114.11133 C 62.222656 110.29354 65.293539 107.22266 69.111328 107.22266 z "
     id="path1125" />
  <rect
     style="fill:#737373;fill-opacity:1;stroke:none;stroke-width:0.82996;stroke-miterlimit:4;stroke-dasharray:none;stroke-opacity:1"
     id="rect942-9-3-1-8-6"
     width="3"
     height="17"
     x="119"
     y="90" />
  <rect
     style="fill:#737373;fill-opacity:1;stroke:none;stroke-width:0.82996;stroke-miterlimit:4;stroke-dasharray:none;stroke-opacity:1"
     id="rect942-9-3-1-8-6-7"
     width="3"
     height="17"
     x="119"
     y="44" />
  <rect
     style="fill:#737373;fill-opacity:1;stroke:none;stroke-width:0.82996;stroke-miterlimit:4;stroke-dasharray:none;stroke-opacity:1"
     id="rect942-9-3-1-8-6-7-5"
     width="3"
     height="17"
     x="29"
     y="44" />
  <path
     inkscape:connector-curvature="0"
     d="m 30.433474,38.1724 a 3.0941076,3.0937009 0 0 1 -4.789167,0.23498 l -5.575192,-6.17541 a 2.3890831,2.3887691 0 0 1 0.176007,-3.37667 2.3980834,2.3977682 0 0 1 3.383118,0.17598 l 3.944135,4.36958 a 0.29101012,0.29097187 0 0 0 0.450015,-0.023 l 8.108282,-10.97494 a 2.3980834,2.3977682 0 0 1 3.350116,-0.50595 2.3880831,2.3877692 0 0 1 0.505019,3.34268 z"
     id="path2-3-3-5"
     style="stroke-width:0.999974;fill:#d51010;fill-opacity:1" />
  <path
     style="color:#000000;font-style:normal;font-variant:normal;font-weight:normal;font-stretch:normal;font-size:medium;line-height:normal;font-family:sans-serif;font-variant-ligatures:normal;font-variant-position:normal;font-variant-caps:normal;font-variant-numeric:normal;font-variant-alternates:normal;font-variant-east-asian:normal;font-feature-settings:normal;font-variation-settings:normal;text-indent:0;text-align:start;text-decoration:none;text-decoration-line:none;text-decoration-style:solid;text-decoration-color:#000000;letter-spacing:normal;word-spacing:normal;text-transform:none;writing-mode:lr-tb;direction:ltr;text-orientation:mixed;dominant-baseline:auto;baseline-shift:baseline;text-anchor:start;white-space:normal;shape-padding:0;shape-margin:0;inline-size:0;clip-rule:nonzero;display:inline;overflow:visible;visibility:visible;isolation:auto;mix-blend-mode:normal;color-interpolation:sRGB;color-interpolation-filters:linearRGB;solid-color:#000000;solid-opacity:1;vector-effect:none;fill:#737373;fill-opacity:1;fill-rule:nonzero;stroke:none;stroke-width:2.22222;stroke-linecap:butt;stroke-linejoin:miter;stroke-miterlimit:4;stroke-dasharray:none;stroke-dashoffset:0;stroke-opacity:1;color-rendering:auto;image-rendering:auto;shape-rendering:auto;text-rendering:auto;enable-background:accumulate;stop-color:#000000"
     d="M 24.111329,15 C 19.092562,15 15,19.09256 15,24.11133 V 35.88867 C 15,40.90744 19.092562,45 24.111329,45 H 35.888672 C 40.907439,45 45,40.90744 45,35.88867 V 24.11133 C 45,19.09256 40.907439,15 35.888672,15 Z m 0,2.22266 h 11.777343 c 3.81779,0 6.888672,3.07088 6.888672,6.88867 v 11.77734 c 0,3.81779 -3.070882,6.88867 -6.888672,6.88867 H 24.111329 c -3.81779,0 -6.888672,-3.07088 -6.888672,-6.88867 V 24.11133 c 0,-3.81779 3.070882,-6.88867 6.888672,-6.88867 z"
     id="path898-6-3" />
  <path
     inkscape:connector-curvature="0"
     d="m 120.43347,38.1724 a 3.0941076,3.0937009 0 0 1 -4.78916,0.23498 l -5.5752,-6.17541 a 2.3890831,2.3887691 0 0 1 0.17601,-3.37667 2.3980834,2.3977682 0 0 1 3.38312,0.17598 l 3.94413,4.36958 a 0.29101012,0.29097187 0 0 0 0.45002,-0.023 l 8.10828,-10.97494 a 2.3980834,2.3977682 0 0 1 3.35012,-0.50595 2.3880831,2.3877692 0 0 1 0.50502,3.34268 z"
     id="path2-3-3-5-6"
     style="stroke-width:0.999974;fill:#de7b00;fill-opacity:1" />
  <path
     style="color:#000000;font-style:normal;font-variant:normal;font-weight:normal;font-stretch:normal;font-size:medium;line-height:normal;font-family:sans-serif;font-variant-ligatures:normal;font-variant-position:normal;font-variant-caps:normal;font-variant-numeric:normal;font-variant-alternates:normal;font-variant-east-asian:normal;font-feature-settings:normal;font-variation-settings:normal;text-indent:0;text-align:start;text-decoration:none;text-decoration-line:none;text-decoration-style:solid;text-decoration-color:#000000;letter-spacing:normal;word-spacing:normal;text-transform:none;writing-mode:lr-tb;direction:ltr;text-orientation:mixed;dominant-baseline:auto;baseline-shift:baseline;text-anchor:start;white-space:normal;shape-padding:0;shape-margin:0;inline-size:0;clip-rule:nonzero;display:inline;overflow:visible;visibility:visible;isolation:auto;mix-blend-mode:normal;color-interpolation:sRGB;color-interpolation-filters:linearRGB;solid-color:#000000;solid-opacity:1;vector-effect:none;fill:#737373;fill-opacity:1;fill-rule:nonzero;stroke:none;stroke-width:2.22222;stroke-linecap:butt;stroke-linejoin:miter;stroke-miterlimit:4;stroke-dasharray:none;stroke-dashoffset:0;stroke-opacity:1;color-rendering:auto;image-rendering:auto;shape-rendering:auto;text-rendering:auto;enable-background:accumulate;stop-color:#000000"
     d="M 114.11133,15 C 109.09256,15 105,19.09256 105,24.11133 V 35.88867 C 105,40.90744 109.09256,45 114.11133,45 h 11.77734 C 130.90744,45 135,40.90744 135,35.88867 V 24.11133 C 135,19.09256 130.90744,15 125.88867,15 Z m 0,2.22266 h 11.77734 c 3.81779,0 6.88867,3.07088 6.88867,6.88867 v 11.77734 c 0,3.81779 -3.07088,6.88867 -6.88867,6.88867 h -11.77734 c -3.81779,0 -6.88867,-3.07088 -6.88867,-6.88867 V 24.11133 c 0,-3.81779 3.07088,-6.88867 6.88867,-6.88867 z"
     id="path898-6-3-2" />
  <path
     inkscape:connector-curvature="0"
     d="m 30.433474,83.1724 a 3.0941076,3.0937009 0 0 1 -4.789167,0.23498 l -5.575192,-6.17541 a 2.3890831,2.3887691 0 0 1 0.176007,-3.37667 2.3980834,2.3977682 0 0 1 3.383118,0.17598 l 3.944135,4.36958 a 0.29101012,0.29097187 0 0 0 0.450015,-0.023 l 8.108282,-10.97494 a 2.3980834,2.3977682 0 0 1 3.350116,-0.50595 2.3880831,2.3877692 0 0 1 0.505019,3.34268 z"
     id="path2-3-3-5-6-1"
     style="stroke-width:0.999974;fill:#edd60a;fill-opacity:1" />
  <path
     style="color:#000000;font-style:normal;font-variant:normal;font-weight:normal;font-stretch:normal;font-size:medium;line-height:normal;font-family:sans-serif;font-variant-ligatures:normal;font-variant-position:normal;font-variant-caps:normal;font-variant-numeric:normal;font-variant-alternates:normal;font-variant-east-asian:normal;font-feature-settings:normal;font-variation-settings:normal;text-indent:0;text-align:start;text-decoration:none;text-decoration-line:none;text-decoration-style:solid;text-decoration-color:#000000;letter-spacing:normal;word-spacing:normal;text-transform:none;writing-mode:lr-tb;direction:ltr;text-orientation:mixed;dominant-baseline:auto;baseline-shift:baseline;text-anchor:start;white-space:normal;shape-padding:0;shape-margin:0;inline-size:0;clip-rule:nonzero;display:inline;overflow:visible;visibility:visible;isolation:auto;mix-blend-mode:normal;color-interpolation:sRGB;color-interpolation-filters:linearRGB;solid-color:#000000;solid-opacity:1;vector-effect:none;fill:#737373;fill-opacity:1;fill-rule:nonzero;stroke:none;stroke-width:2.22222;stroke-linecap:butt;stroke-linejoin:miter;stroke-miterlimit:4;stroke-dasharray:none;stroke-dashoffset:0;stroke-opacity:1;color-rendering:auto;image-rendering:auto;shape-rendering:auto;text-rendering:auto;enable-background:accumulate;stop-color:#000000"
     d="M 24.111329,60 C 19.092562,60 15,64.09256 15,69.11133 V 80.88867 C 15,85.90744 19.092562,90 24.111329,90 H 35.888672 C 40.907439,90 45,85.90744 45,80.88867 V 69.11133 C 45,64.09256 40.907439,60 35.888672,60 Z m 0,2.22266 h 11.777343 c 3.81779,0 6.888672,3.07088 6.888672,6.88867 v 11.77734 c 0,3.81779 -3.070882,6.88867 -6.888672,6.88867 H 24.111329 c -3.81779,0 -6.888672,-3.07088 -6.888672,-6.88867 V 69.11133 c 0,-3.81779 3.070882,-6.88867 6.888672,-6.88867 z"
     id="path898-6-3-2-2" />
  <path
     inkscape:connector-curvature="0"
     d="m 30.433474,128.1724 a 3.0941076,3.0937009 0 0 1 -4.789167,0.23498 l -5.575192,-6.17541 a 2.3890831,2.3887691 0 0 1 0.176007,-3.37667 2.3980834,2.3977682 0 0 1 3.383118,0.17598 l 3.944135,4.36958 a 0.29101012,0.29097187 0 0 0 0.450015,-0.023 l 8.108282,-10.97494 a 2.3980834,2.3977682 0 0 1 3.350116,-0.50595 2.3880831,2.3877692 0 0 1 0.505019,3.34268 z"
     id="path2-3-3-5-6-1-0-2"
     style="stroke-width:0.999974;fill:#0059b8;fill-opacity:1" />
  <path
     style="color:#000000;font-style:normal;font-variant:normal;font-weight:normal;font-stretch:normal;font-size:medium;line-height:normal;font-family:sans-serif;font-variant-ligatures:normal;font-variant-position:normal;font-variant-caps:normal;font-variant-numeric:normal;font-variant-alternates:normal;font-variant-east-asian:normal;font-feature-settings:normal;font-variation-settings:normal;text-indent:0;text-align:start;text-decoration:none;text-decoration-line:none;text-decoration-style:solid;text-decoration-color:#000000;letter-spacing:normal;word-spacing:normal;text-transform:none;writing-mode:lr-tb;direction:ltr;text-orientation:mixed;dominant-baseline:auto;baseline-shift:baseline;text-anchor:start;white-space:normal;shape-padding:0;shape-margin:0;inline-size:0;clip-rule:nonzero;display:inline;overflow:visible;visibility:visible;isolation:auto;mix-blend-mode:normal;color-interpolation:sRGB;color-interpolation-filters:linearRGB;solid-color:#000000;solid-opacity:1;vector-effect:none;fill:#737373;fill-opacity:1;fill-rule:nonzero;stroke:none;stroke-width:2.22222;stroke-linecap:butt;stroke-linejoin:miter;stroke-miterlimit:4;stroke-dasharray:none;stroke-dashoffset:0;stroke-opacity:1;color-rendering:auto;image-rendering:auto;shape-rendering:auto;text-rendering:auto;enable-background:accumulate;stop-color:#000000"
     d="M 24.111329,105 C 19.092562,105 15,109.09256 15,114.11133 v 11.77734 C 15,130.90744 19.092562,135 24.111329,135 H 35.888672 C 40.907439,135 45,130.90744 45,125.88867 V 114.11133 C 45,109.09256 40.907439,105 35.888672,105 Z m 0,2.22266 h 11.777343 c 3.81779,0 6.888672,3.07088 6.888672,6.88867 v 11.77734 c 0,3.81779 -3.070882,6.88867 -6.888672,6.88867 H 24.111329 c -3.81779,0 -6.888672,-3.07088 -6.888672,-6.88867 v -11.77734 c 0,-3.81779 3.070882,-6.88867 6.888672,-6.88867 z"
     id="path898-6-3-2-2-9-6" />
  <path
     inkscape:connector-curvature="0"
     d="m 75.433474,83.1724 a 3.0941076,3.0937009 0 0 1 -4.789167,0.23498 l -5.575192,-6.17541 a 2.3890831,2.3887691 0 0 1 0.176007,-3.37667 2.3980834,2.3977682 0 0 1 3.383118,0.17598 l 3.944135,4.36958 a 0.29101012,0.29097187 0 0 0 0.450015,-0.023 l 8.108282,-10.97494 a 2.3980834,2.3977682 0 0 1 3.350116,-0.50595 2.3880831,2.3877692 0 0 1 0.505019,3.34268 z"
     id="path2-3-3-5-6-1-0-2-8"
     style="stroke-width:0.999974;fill:#1fb800;fill-opacity:1" />
  <path
     style="color:#000000;font-style:normal;font-variant:normal;font-weight:normal;font-stretch:normal;font-size:medium;line-height:normal;font-family:sans-serif;font-variant-ligatures:normal;font-variant-position:normal;font-variant-caps:normal;font-variant-numeric:normal;font-variant-alternates:normal;font-variant-east-asian:normal;font-feature-settings:normal;font-variation-settings:normal;text-indent:0;text-align:start;text-decoration:none;text-decoration-line:none;text-decoration-style:solid;text-decoration-color:#000000;letter-spacing:normal;word-spacing:normal;text-transform:none;writing-mode:lr-tb;direction:ltr;text-orientation:mixed;dominant-baseline:auto;baseline-shift:baseline;text-anchor:start;white-space:normal;shape-padding:0;shape-margin:0;inline-size:0;clip-rule:nonzero;display:inline;overflow:visible;visibility:visible;isolation:auto;mix-blend-mode:normal;color-interpolation:sRGB;color-interpolation-filters:linearRGB;solid-color:#000000;solid-opacity:1;vector-effect:none;fill:#737373;fill-opacity:1;fill-rule:nonzero;stroke:none;stroke-width:2.22222;stroke-linecap:butt;stroke-linejoin:miter;stroke-miterlimit:4;stroke-dasharray:none;stroke-dashoffset:0;stroke-opacity:1;color-rendering:auto;image-rendering:auto;shape-rendering:auto;text-rendering:auto;enable-background:accumulate;stop-color:#000000"
     d="M 69.111329,60 C 64.092562,60 60,64.09256 60,69.11133 V 80.88867 C 60,85.90744 64.092562,90 69.111329,90 H 80.888672 C 85.907439,90 90,85.90744 90,80.88867 V 69.11133 C 90,64.09256 85.907439,60 80.888672,60 Z m 0,2.22266 h 11.777343 c 3.81779,0 6.888672,3.07088 6.888672,6.88867 v 11.77734 c 0,3.81779 -3.070882,6.88867 -6.888672,6.88867 H 69.111329 c -3.81779,0 -6.888672,-3.07088 -6.888672,-6.88867 V 69.11133 c 0,-3.81779 3.070882,-6.88867 6.888672,-6.88867 z"
     id="path898-6-3-2-2-9-6-7" />
  <path
     inkscape:connector-curvature="0"
     d="m 120.43347,83.1724 a 3.0941076,3.0937009 0 0 1 -4.78916,0.23498 l -5.5752,-6.17541 a 2.3890831,2.3887691 0 0 1 0.17601,-3.37667 2.3980834,2.3977682 0 0 1 3.38312,0.17598 l 3.94413,4.36958 a 0.29101012,0.29097187 0 0 0 0.45002,-0.023 l 8.10828,-10.97494 a 2.3980834,2.3977682 0 0 1 3.35012,-0.50595 2.3880831,2.3877692 0 0 1 0.50502,3.34268 z"
     id="path2-3-3-5-6-1-0-2-8-2"
     style="stroke-width:0.999974;fill:#108ad5;fill-opacity:1" />
  <path
     style="color:#000000;font-style:normal;font-variant:normal;font-weight:normal;font-stretch:normal;font-size:medium;line-height:normal;font-family:sans-serif;font-variant-ligatures:normal;font-variant-position:normal;font-variant-caps:normal;font-variant-numeric:normal;font-variant-alternates:normal;font-variant-east-asian:normal;font-feature-settings:normal;font-variation-settings:normal;text-indent:0;text-align:start;text-decoration:none;text-decoration-line:none;text-decoration-style:solid;text-decoration-color:#000000;letter-spacing:normal;word-spacing:normal;text-transform:none;writing-mode:lr-tb;direction:ltr;text-orientation:mixed;dominant-baseline:auto;baseline-shift:baseline;text-anchor:start;white-space:normal;shape-padding:0;shape-margin:0;inline-size:0;clip-rule:nonzero;display:inline;overflow:visible;visibility:visible;isolation:auto;mix-blend-mode:normal;color-interpolation:sRGB;color-interpolation-filters:linearRGB;solid-color:#000000;solid-opacity:1;vector-effect:none;fill:#737373;fill-opacity:1;fill-rule:nonzero;stroke:none;stroke-width:2.22222;stroke-linecap:butt;stroke-linejoin:miter;stroke-miterlimit:4;stroke-dasharray:none;stroke-dashoffset:0;stroke-opacity:1;color-rendering:auto;image-rendering:auto;shape-rendering:auto;text-rendering:auto;enable-background:accumulate;stop-color:#000000"
     d="M 114.11133,60 C 109.09256,60 105,64.09256 105,69.11133 V 80.88867 C 105,85.90744 109.09256,90 114.11133,90 h 11.77734 C 130.90744,90 135,85.90744 135,80.88867 V 69.11133 C 135,64.09256 130.90744,60 125.88867,60 Z m 0,2.22266 h 11.77734 c 3.81779,0 6.88867,3.07088 6.88867,6.88867 v 11.77734 c 0,3.81779 -3.07088,6.88867 -6.88867,6.88867 h -11.77734 c -3.81779,0 -6.88867,-3.07088 -6.88867,-6.88867 V 69.11133 c 0,-3.81779 3.07088,-6.88867 6.88867,-6.88867 z"
     id="path898-6-3-2-2-9-6-7-0" />
  <path
     inkscape:connector-curvature="0"
     d="m 120.43347,128.1724 a 3.0941076,3.0937009 0 0 1 -4.78916,0.23498 l -5.5752,-6.17541 a 2.3890831,2.3887691 0 0 1 0.17601,-3.37667 2.3980834,2.3977682 0 0 1 3.38312,0.17598 l 3.94413,4.36958 a 0.29101012,0.29097187 0 0 0 0.45002,-0.023 l 8.10828,-10.97494 a 2.3980834,2.3977682 0 0 1 3.35012,-0.50595 2.3880831,2.3877692 0 0 1 0.50502,3.34268 z"
     id="path2-3-3-5-6-1-0-3"
     style="stroke-width:0.999974;fill:#b71ec2;fill-opacity:1" />
  <path
     style="color:#000000;font-style:normal;font-variant:normal;font-weight:normal;font-stretch:normal;font-size:medium;line-height:normal;font-family:sans-serif;font-variant-ligatures:normal;font-variant-position:normal;font-variant-caps:normal;font-variant-numeric:normal;font-variant-alternates:normal;font-variant-east-asian:normal;font-feature-settings:normal;font-variation-settings:normal;text-indent:0;text-align:start;text-decoration:none;text-decoration-line:none;text-decoration-style:solid;text-decoration-color:#000000;letter-spacing:normal;word-spacing:normal;text-transform:none;writing-mode:lr-tb;direction:ltr;text-orientation:mixed;dominant-baseline:auto;baseline-shift:baseline;text-anchor:start;white-space:normal;shape-padding:0;shape-margin:0;inline-size:0;clip-rule:nonzero;display:inline;overflow:visible;visibility:visible;isolation:auto;mix-blend-mode:normal;color-interpolation:sRGB;color-interpolation-filters:linearRGB;solid-color:#000000;solid-opacity:1;vector-effect:none;fill:#737373;fill-opacity:1;fill-rule:nonzero;stroke:none;stroke-width:2.22222;stroke-linecap:butt;stroke-linejoin:miter;stroke-miterlimit:4;stroke-dasharray:none;stroke-dashoffset:0;stroke-opacity:1;color-rendering:auto;image-rendering:auto;shape-rendering:auto;text-rendering:auto;enable-background:accumulate;stop-color:#000000"
     d="M 114.11133,105 C 109.09256,105 105,109.09256 105,114.11133 v 11.77734 c 0,5.01877 4.09256,9.11133 9.11133,9.11133 h 11.77734 C 130.90744,135 135,130.90744 135,125.88867 V 114.11133 C 135,109.09256 130.90744,105 125.88867,105 Z m 0,2.22266 h 11.77734 c 3.81779,0 6.88867,3.07088 6.88867,6.88867 v 11.77734 c 0,3.81779 -3.07088,6.88867 -6.88867,6.88867 h -11.77734 c -3.81779,0 -6.88867,-3.07088 -6.88867,-6.88867 v -11.77734 c 0,-3.81779 3.07088,-6.88867 6.88867,-6.88867 z"
     id="path898-6-3-2-2-9-7" />
</svg>
