<svg xmlns="http://www.w3.org/2000/svg" width="20" height="20" viewBox="0 0 20 20"><path d="M19.602 7.67a1.316 1.316 0 0 0-.966-.397h-5.909v-5.91c0-.378-.133-.7-.398-.965A1.315 1.315 0 0 0 11.363 0H8.636c-.378 0-.7.132-.966.398a1.315 1.315 0 0 0-.397.966v5.909h-5.91c-.378 0-.7.132-.965.398A1.315 1.315 0 0 0 0 8.636v2.728c0 .379.132.7.398.966.265.265.587.397.966.397h5.909v5.91c0 .378.132.7.397.966.266.265.588.397.966.397h2.727c.38 0 .701-.132.966-.397.266-.266.398-.588.398-.966v-5.91h5.91c.378 0 .7-.132.965-.397s.398-.587.398-.966V8.636c0-.378-.132-.7-.398-.965z"/></svg>