<svg version="1" xmlns="http://www.w3.org/2000/svg" width="933.333" height="933.333" viewBox="0 0 700.000000 700.000000"><path d="M99.5 71.8C87.5 76 79.1 83.5 73.6 95l-3.1 6.5v77l3.2 6.8c4.2 8.8 11.7 16.3 20.8 20.8l6.9 3.4 16.8.3 16.8.4v69.6l-16.8.4-16.8.3-7.6 3.8c-9.1 4.5-15.7 11.2-20.2 20.7l-3.1 6.5v77l3.2 6.8c4.2 8.8 11.7 16.3 20.8 20.8l6.9 3.4 16.8.3 16.8.4v69.6l-16.8.4-16.8.3-7.6 3.8c-9.1 4.5-15.7 11.2-20.2 20.7l-3.1 6.5v77l3.2 6.8c4.2 8.8 11.7 16.3 20.8 20.8l7 3.4h77l7-3.4c9.1-4.5 16.6-12 20.8-20.8l3.2-6.8v-77l-3.2-6.8c-4.2-8.9-12.1-16.8-21-21-6.5-3.1-7.4-3.2-21-3.5l-14.3-.4v-69.6l14.3-.4c13.9-.3 14.4-.4 21.2-3.7 9.1-4.5 16.6-12 20.8-20.8 3.1-6.5 3.2-7.4 3.5-21.1l.4-14.2h69.6l.4 14.2c.3 13.7.4 14.6 3.5 21.1 4.2 8.8 11.7 16.3 20.8 20.8l7 3.4h77l7-3.4c9.1-4.5 16.6-12 20.8-20.8 3.1-6.5 3.2-7.4 3.5-21.1l.4-14.2h69.6l.4 14.2c.3 13.7.4 14.6 3.5 21.1 4.2 8.8 11.7 16.3 20.8 20.8l6.9 3.4 16.8.3 16.8.4v69.6l-16.8.4-16.8.3-7.6 3.8c-9.1 4.5-15.7 11.2-20.2 20.7l-3.1 6.5v77l3.2 6.8c4.2 8.8 11.7 16.3 20.8 20.8l7 3.4h77l7-3.4c9.1-4.5 16.6-12 20.8-20.8l3.2-6.8v-77l-3.2-6.8c-4.2-8.9-12.1-16.8-21-21-6.5-3.1-7.4-3.2-21-3.5l-14.3-.4v-69.6l14.3-.4c13.9-.3 14.4-.4 21.2-3.7 9.1-4.5 16.6-12 20.8-20.8l3.2-6.8v-77l-3.2-6.8c-4.2-8.9-12.1-16.8-21-21-6.5-3.1-7.4-3.2-21-3.5l-14.3-.4v-69.6l14.3-.4c13.9-.3 14.4-.4 21.2-3.7 9.1-4.5 16.6-12 20.8-20.8l3.2-6.8v-77l-3.2-6.8c-4.2-8.9-12.1-16.8-21-21l-6.8-3.2h-77.1l-7.6 3.8c-9.1 4.5-15.7 11.2-20.2 20.7l-3.1 6.5v77l3.2 6.8c4.2 8.8 11.7 16.3 20.8 20.8l6.9 3.4 16.8.3 16.8.4v69.6l-16.8.4-16.8.3-7.6 3.8c-9.1 4.5-15.7 11.2-20.2 20.7-3 6.3-3.1 6.9-3.4 23.2l-.4 16.8h-69.6l-.4-16.8c-.3-16.4-.4-16.8-3.5-23.5-4.2-8.9-12.1-16.8-21-21l-6.8-3.2h-77.1l-7.6 3.8c-9.1 4.5-15.7 11.2-20.2 20.7-3 6.3-3.1 6.9-3.4 23.2l-.4 16.8h-69.6l-.4-16.8c-.3-16.4-.4-16.8-3.5-23.5-4.2-8.9-12.1-16.8-21-21-6.5-3.1-7.4-3.2-21-3.5l-14.3-.4v-69.6l14.3-.4c13.9-.3 14.4-.4 21.2-3.7 9.1-4.5 16.6-12 20.8-20.8l3.2-6.8v-77l-3.2-6.8c-4.2-8.9-12.1-16.8-21-21l-6.8-3.2-37-.2c-33.1-.3-37.5-.1-42 1.5zM178 82.6c4.2 1.2 6.7 2.9 11.6 7.8 9.3 9.3 9.4 10 9.4 49.6s-.1 40.3-9.3 49.5c-9.5 9.4-10.2 9.5-49.7 9.5s-40.2-.1-49.7-9.5c-9.2-9.2-9.3-9.9-9.3-49.4 0-19.9.4-34.2 1.1-36.6 2.3-8.8 11.4-18.3 20.1-21 6.8-2.2 68.6-2 75.8.1zm420 0c4.2 1.2 6.7 2.9 11.6 7.8 9.3 9.3 9.4 10 9.4 49.6s-.1 40.3-9.3 49.5c-9.5 9.4-10.2 9.5-49.7 9.5s-40.2-.1-49.7-9.5c-9.2-9.2-9.3-9.9-9.3-49.4 0-19.9.4-34.2 1.1-36.6 2.3-8.8 11.4-18.3 20.1-21 6.8-2.2 68.6-2 75.8.1zm-420 210c4.2 1.2 6.7 2.9 11.6 7.8 9.3 9.3 9.4 10 9.4 49.6s-.1 40.3-9.3 49.5c-9.5 9.4-10.2 9.5-49.7 9.5s-40.2-.1-49.7-9.5c-9.2-9.2-9.3-9.9-9.3-49.4 0-19.9.4-34.2 1.1-36.6 2.3-8.8 11.4-18.3 20.1-21 6.8-2.2 68.6-2 75.8.1zm210 0c4.2 1.2 6.7 2.9 11.6 7.8 9.3 9.3 9.4 10 9.4 49.6s-.1 40.3-9.3 49.5c-9.5 9.4-10.2 9.5-49.7 9.5s-40.2-.1-49.7-9.5c-9.2-9.2-9.3-9.9-9.3-49.4 0-19.9.4-34.2 1.1-36.6 2.3-8.8 11.4-18.3 20.1-21 6.8-2.2 68.6-2 75.8.1zm210 0c4.2 1.2 6.7 2.9 11.6 7.8 9.3 9.3 9.4 10 9.4 49.6s-.1 40.3-9.3 49.5c-9.5 9.4-10.2 9.5-49.7 9.5s-40.2-.1-49.7-9.5c-9.2-9.2-9.3-9.9-9.3-49.4 0-19.9.4-34.2 1.1-36.6 2.3-8.8 11.4-18.3 20.1-21 6.8-2.2 68.6-2 75.8.1zm-420 210c4.2 1.2 6.7 2.9 11.6 7.8 9.3 9.3 9.4 10 9.4 49.6s-.1 40.3-9.3 49.5c-9.5 9.4-10.2 9.5-49.7 9.5s-40.2-.1-49.7-9.5c-9.2-9.2-9.3-9.9-9.3-49.4 0-19.9.4-34.2 1.1-36.6 2.3-8.8 11.4-18.3 20.1-21 6.8-2.2 68.6-2 75.8.1zm420 0c4.2 1.2 6.7 2.9 11.6 7.8 9.3 9.3 9.4 10 9.4 49.6s-.1 40.3-9.3 49.5c-9.5 9.4-10.2 9.5-49.7 9.5s-40.2-.1-49.7-9.5c-9.2-9.2-9.3-9.9-9.3-49.4 0-19.9.4-34.2 1.1-36.6 2.3-8.8 11.4-18.3 20.1-21 6.8-2.2 68.6-2 75.8.1z"/><path d="M170.1 102.7c-1.6 1.6-11.1 13.9-21.1 27.5-10 13.6-18.5 25-19 25.3-.4.3-5.4-4.7-11.1-11-11.4-12.7-14.2-14.4-20.6-12.2-2 .7-4.5 2.4-5.6 3.9-2.3 3.1-2.6 9.6-.6 12.6 3.1 4.4 27.3 30.8 30.3 33 4.3 3.2 13.3 2.8 17.2-.9 2.4-2.2 45.5-59.8 48.1-64.3.7-1.2 1.2-3.8 1.3-6 0-3-.7-4.5-3.4-7.2-2.9-2.9-4.1-3.4-8-3.4-3.6 0-5.2.6-7.5 2.7zM591.8 101c-.9.6-10.5 13.1-21.4 27.8-10.9 14.7-19.9 26.9-20.1 27.2-.3.3-2.5-1.8-5-4.5-19.1-20.7-17.7-19.5-23.1-19.5-4.3 0-5.5.5-8.1 3-1.6 1.7-3.1 4-3.3 5.3-.8 5.7.5 7.9 14.2 23 18.4 20.3 18 20 24.2 20.5 4.4.3 5.9 0 8.8-2 3-2.1 16.1-19.1 43.2-56.3 7.7-10.6 8-11.2 7.5-15.5-.7-6.1-5-10-11-10-2.3 0-5 .5-5.9 1zM172.2 311.3c-1.2.7-11.1 13.2-21.8 27.8-10.7 14.5-19.9 26.5-20.3 26.7-.5.2-3.3-2.3-6.2-5.5-15.6-16.9-17.3-18.3-21.8-18.3-3.6 0-4.9.6-7.7 3.4-4.2 4.2-4.7 9.7-1.2 14.2 5.7 7.4 28.5 31.7 31 33 3.7 1.9 9.7 1.7 13.3-.4 1.7-1.1 12.2-14.3 24-30.3 25.7-34.8 27.5-37.5 27.5-40.6 0-8.2-9.7-13.9-16.8-10zM381.8 311c-.9.6-10.5 13.1-21.4 27.8-10.9 14.7-19.9 26.9-20.1 27.2-.3.3-2.5-1.8-5-4.5-19.1-20.7-17.7-19.5-23.1-19.5-4.3 0-5.5.5-8.1 3-1.6 1.7-3.1 4-3.3 5.3-.8 5.7.5 7.9 14.2 23 18.4 20.3 18 20 24.2 20.4 7.3.6 10.1-1.5 19-13.4 42.5-57.6 41.1-55.3 40.5-60.2-.7-6.2-5-10.1-11-10.1-2.3 0-5 .5-5.9 1zM591.8 311c-.9.6-10.5 13-21.4 27.8-10.9 14.7-20 26.9-20.2 27.2-.2.3-2.4-1.8-4.9-4.5-19.1-20.7-17.7-19.5-23.1-19.5-7.9 0-12.9 5.8-11.5 13.4.7 3.3 28.1 34.3 32.7 36.9 4.4 2.6 12.7 1.9 16.2-1.4 2.2-2.1 43.2-57 47.9-64.2 2.6-4.1 1.5-10.4-2.5-14-2.3-2-4-2.7-7.3-2.7-2.3 0-5 .5-5.9 1zM170.1 522.7c-1.6 1.6-11 13.9-21 27.5s-18.6 25-19.1 25.3c-.4.3-5.5-4.7-11.1-11-11.4-12.7-14.2-14.4-20.6-12.2-2 .7-4.5 2.4-5.6 3.9-2.4 3.2-2.6 9.7-.5 12.7 3.3 4.7 28.3 31.7 31 33.5 4.1 2.6 12.8 1.9 16.4-1.5 2.1-2 41.7-55 47.7-63.9.9-1.3 1.7-4.2 1.7-6.3 0-3.1-.7-4.6-3.4-7.3-2.9-2.9-4.1-3.4-8-3.4-3.6 0-5.2.6-7.5 2.7zM590.1 522.7c-1.6 1.6-11.1 13.9-21.1 27.5-10 13.6-18.5 25-19 25.3-.4.3-5.4-4.7-11.1-11-11.4-12.7-14.2-14.4-20.6-12.2-2 .7-4.5 2.4-5.6 3.9-2.3 3.1-2.6 9.6-.6 12.6 3.1 4.4 27.3 30.8 30.3 33 4.3 3.2 13.3 2.8 17.2-.9 2.3-2.1 28.4-36.9 44.1-58.8 6.7-9.3 7.1-13.5 1.9-18.7-2.9-2.9-4.1-3.4-8-3.4-3.6 0-5.2.6-7.5 2.7zM309.5 71.8c-12 4.2-20.4 11.7-25.9 23.2l-3.1 6.5v77l3.2 6.8c4.2 8.8 11.7 16.3 20.8 20.8l7 3.4h77l7-3.4c9.1-4.5 16.6-12 20.8-20.8l3.2-6.8v-77l-3.2-6.8c-4.2-8.9-12.1-16.8-21-21l-6.8-3.2-37-.2c-33.1-.3-37.5-.1-42 1.5zM388 82.6c4.2 1.2 6.7 2.9 11.6 7.8 9.3 9.3 9.4 10 9.4 49.6s-.1 40.3-9.3 49.5c-9.5 9.4-10.2 9.5-49.7 9.5s-40.2-.1-49.7-9.5c-9.2-9.2-9.3-9.9-9.3-49.4 0-19.9.4-34.2 1.1-36.6 2.3-8.8 11.4-18.3 20.1-21 6.8-2.2 68.6-2 75.8.1zM309.5 491.8c-12 4.2-20.4 11.7-25.9 23.2l-3.1 6.5v77l3.2 6.8c4.2 8.8 11.7 16.3 20.8 20.8l7 3.4h77l7-3.4c9.1-4.5 16.6-12 20.8-20.8l3.2-6.8v-77l-3.2-6.8c-4.2-8.9-12.1-16.8-21-21l-6.8-3.2-37-.2c-33.1-.3-37.5-.1-42 1.5zm78.5 10.8c4.2 1.2 6.7 2.9 11.6 7.8 9.3 9.3 9.4 10 9.4 49.6s-.1 40.3-9.3 49.5c-9.5 9.4-10.2 9.5-49.7 9.5s-40.2-.1-49.7-9.5c-9.2-9.2-9.3-9.9-9.3-49.4 0-19.9.4-34.2 1.1-36.6 2.3-8.8 11.4-18.3 20.1-21 6.8-2.2 68.6-2 75.8.1z"/></svg>