<svg version="1" xmlns="http://www.w3.org/2000/svg" width="933.333" height="933.333" viewBox="0 0 700.000000 700.000000"><path d="M195.9.4c-.2.2-3.5.7-7.4 1-3.8.4-7.7.9-8.5 1.1-.8.2-3.1.6-5 .9-16.5 2.4-39.1 10.1-58.5 19.8-8.9 4.5-25.9 14.9-31.1 19.1-12.2 9.8-16 13.3-22.9 20.2-18.7 18.8-32.1 37.9-43.1 62-4.2 9-10.2 25-11 29.2-.2 1.2-.9 3.4-1.4 4.8-.5 1.4-.7 2.5-.5 2.5.2 0 0 1.1-.5 2.5-1.1 2.9-1.8 6.1-2.6 12-.3 2.2-.7 4.6-1 5.4-.2.8-.8 4.6-1.2 8.5-1 9.6-.9 311.1.1 320.9 1.1 11.3 3.4 22.3 7.2 35.9 14 48.5 44 89.3 87.1 118.3 10 6.8 36.4 20.5 39.4 20.5.9 0 2 .4 2.5.9 1.3 1.2 21.7 7.4 31.5 9.5 21 4.5 18.7 4.5 184.5 4.2 86.4-.1 158.1-.5 159.5-.8 1.4-.4 4.1-.9 6-1.2 18.2-2.9 39.7-9.1 53.6-15.6 3.6-1.6 6.7-3 6.8-3 .2 0 4.6-2.3 9.7-5.2 51.5-28.4 89-76.4 104-133.2 1.6-6.1 3.2-13.1 3.5-15.6.3-2.5.8-5.4 1.1-6.5.2-1.1.7-5.2 1.1-9 1-9.6.9-312.5-.1-320-.4-3.3-1-7.8-1.2-10-.3-2.2-.8-4.7-1-5.5-.2-.8-.7-2.9-1-4.7-.9-5.3-7.3-27.1-10.1-34.1-1.5-3.7-4.9-11.2-7.7-16.7s-5.5-11-6.1-12.2c-.6-1.3-1.4-2.3-1.8-2.3-.5 0-.8-.5-.8-1.1 0-1.1-10.7-17.1-13.7-20.4-1-1.1-3.6-4.3-5.8-7-11-13.7-29.9-30.4-47.5-41.8-18.3-11.9-49.2-25-66-28.1-1.4-.2-4.5-.9-7-1.4-5.5-1.3-11.2-2.1-21-3.2C500.9.2 196.7-.3 195.9.4z"/></svg>